HIERARCHY
ROOT hip
{
  OFFSET 0 90.174 2.4664
  CHANNELS 6 Xposition Yposition Zposition Zrotation Xrotation Yrotation
  JOINT abdomen
  {
    OFFSET 0 -1.186 -1.5018
    CHANNELS 6 Xposition Yposition Zposition Zrotation Xrotation Yrotation
    JOINT abdomen2
    {
      OFFSET 0 9.964 0.2134
      CHANNELS 6 Xposition Yposition Zposition Zrotation Xrotation Yrotation
      JOINT chest
      {
        OFFSET 0 13.134 -3.2573
        CHANNELS 6 Xposition Yposition Zposition Zrotation Xrotation Yrotation
        JOINT neck
        {
          OFFSET 0 20.686 -1.6905
          CHANNELS 6 Xposition Yposition Zposition Zrotation Xrotation Yrotation
          JOINT head
          {
            OFFSET 0 7.238 -0.1237
            CHANNELS 6 Xposition Yposition Zposition Zrotation Xrotation Yrotation
            End Site
            {
              OFFSET 0 0 0
            }
          }
        }
        JOINT lCollar
        {
          OFFSET 1.7069 20.075 5.0056
          CHANNELS 6 Xposition Yposition Zposition Zrotation Xrotation Yrotation
          JOINT lShldr
          {
            OFFSET 13.6458 -0.047 -4.849
            CHANNELS 6 Xposition Yposition Zposition Zrotation Xrotation Yrotation
            JOINT lForeArm
            {
              OFFSET 28.3255 -0.9759 2.2888
              CHANNELS 6 Xposition Yposition Zposition Zrotation Xrotation Yrotation
              JOINT lHand
              {
                OFFSET 22.1583 -0.53 10.8316
                CHANNELS 6 Xposition Yposition Zposition Zrotation Xrotation Yrotation
                JOINT lThumb1
                {
                  OFFSET 0.786 0.112 2.5817
                  CHANNELS 6 Xposition Yposition Zposition Zrotation Xrotation Yrotation
                  JOINT lThumb2
                  {
                    OFFSET 0.3601 -0.878 4.2331
                    CHANNELS 6 Xposition Yposition Zposition Zrotation Xrotation Yrotation
                    JOINT lThumb2_End
                    {
                      OFFSET 1.8127 -1.216 2.2227
                      CHANNELS 6 Xposition Yposition Zposition Zrotation Xrotation Yrotation
                      End Site
                      {
                        OFFSET 0.0181 -0.0122 0.0222
                      }
                    }
                  }
                }
                JOINT lCarpal1
                {
                  OFFSET 0.9571 1.114 1.7695
                  CHANNELS 6 Xposition Yposition Zposition Zrotation Xrotation Yrotation
                  JOINT lIndex1
                  {
                    OFFSET 4.1246 0.487 4.1451
                    CHANNELS 6 Xposition Yposition Zposition Zrotation Xrotation Yrotation
                    JOINT lIndex2
                    {
                      OFFSET 3.4052 -1.454 2.7682
                      CHANNELS 6 Xposition Yposition Zposition Zrotation Xrotation Yrotation
                      JOINT lIndex2_End
                      {
                        OFFSET 1.4531 -1.795 1.2713
                        CHANNELS 6 Xposition Yposition Zposition Zrotation Xrotation Yrotation
                        End Site
                        {
                          OFFSET 0.0145 -0.0179 0.0127
                        }
                      }
                    }
                  }
                  JOINT lMid1
                  {
                    OFFSET 5.6954 0.21 2.1184
                    CHANNELS 6 Xposition Yposition Zposition Zrotation Xrotation Yrotation
                    JOINT lMid2
                    {
                      OFFSET 3.9766 -1.54 2.3863
                      CHANNELS 6 Xposition Yposition Zposition Zrotation Xrotation Yrotation
                      JOINT lMid2_End
                      {
                        OFFSET 1.4042 -1.926 1.125
                        CHANNELS 6 Xposition Yposition Zposition Zrotation Xrotation Yrotation
                        End Site
                        {
                          OFFSET 0.014 -0.0193 0.0113
                        }
                      }
                    }
                  }
                }
                JOINT lCarpal2
                {
                  OFFSET 2.0956 0.66 -0.3894
                  CHANNELS 6 Xposition Yposition Zposition Zrotation Xrotation Yrotation
                  JOINT lRing1
                  {
                    OFFSET 5.0395 -0.09 2.4971
                    CHANNELS 6 Xposition Yposition Zposition Zrotation Xrotation Yrotation
                    JOINT lRing2
                    {
                      OFFSET 3.7921 -1.552 1.4806
                      CHANNELS 6 Xposition Yposition Zposition Zrotation Xrotation Yrotation
                      JOINT lRing2_End
                      {
                        OFFSET 1.4655 -1.808 0.9609
                        CHANNELS 6 Xposition Yposition Zposition Zrotation Xrotation Yrotation
                        End Site
                        {
                          OFFSET 0.0147 -0.0181 0.0096
                        }
                      }
                    }
                  }
                  JOINT lPinky1
                  {
                    OFFSET 4.9141 -1.269 0.3591
                    CHANNELS 6 Xposition Yposition Zposition Zrotation Xrotation Yrotation
                    JOINT lPinky2
                    {
                      OFFSET 3.1477 -1.685 0.8462
                      CHANNELS 6 Xposition Yposition Zposition Zrotation Xrotation Yrotation
                      JOINT lPinky2_End
                      {
                        OFFSET 0.8055 -1.585 0.7955
                        CHANNELS 6 Xposition Yposition Zposition Zrotation Xrotation Yrotation
                        End Site
                        {
                          OFFSET 0.0081 -0.0158 0.008
                        }
                      }
                    }
                  }
                }
              }
            }
          }
        }
        JOINT rCollar
        {
          OFFSET -1.7069 20.075 5.0056
          CHANNELS 6 Xposition Yposition Zposition Zrotation Xrotation Yrotation
          JOINT rShldr
          {
            OFFSET -13.6458 -0.047 -4.849
            CHANNELS 6 Xposition Yposition Zposition Zrotation Xrotation Yrotation
            JOINT rForeArm
            {
              OFFSET -28.3255 -0.9759 2.2888
              CHANNELS 6 Xposition Yposition Zposition Zrotation Xrotation Yrotation
              JOINT rHand
              {
                OFFSET -22.1583 -0.53 10.8316
                CHANNELS 6 Xposition Yposition Zposition Zrotation Xrotation Yrotation
                JOINT rThumb1
                {
                  OFFSET -0.786 0.112 2.5817
                  CHANNELS 6 Xposition Yposition Zposition Zrotation Xrotation Yrotation
                  JOINT rThumb2
                  {
                    OFFSET -0.3601 -0.878 4.2331
                    CHANNELS 6 Xposition Yposition Zposition Zrotation Xrotation Yrotation
                    JOINT rThumb2_End
                    {
                      OFFSET -1.8127 -1.216 2.2227
                      CHANNELS 6 Xposition Yposition Zposition Zrotation Xrotation Yrotation
                      End Site
                      {
                        OFFSET -0.0181 -0.0122 0.0222
                      }
                    }
                  }
                }
                JOINT rCarpal1
                {
                  OFFSET -0.9571 1.114 1.7695
                  CHANNELS 6 Xposition Yposition Zposition Zrotation Xrotation Yrotation
                  JOINT rIndex1
                  {
                    OFFSET -4.1246 0.487 4.1451
                    CHANNELS 6 Xposition Yposition Zposition Zrotation Xrotation Yrotation
                    JOINT rIndex2
                    {
                      OFFSET -3.4052 -1.454 2.7682
                      CHANNELS 6 Xposition Yposition Zposition Zrotation Xrotation Yrotation
                      JOINT rIndex2_End
                      {
                        OFFSET -1.4531 -1.795 1.2713
                        CHANNELS 6 Xposition Yposition Zposition Zrotation Xrotation Yrotation
                        End Site
                        {
                          OFFSET -0.0145 -0.018 0.0127
                        }
                      }
                    }
                  }
                  JOINT rMid1
                  {
                    OFFSET -5.6954 0.21 2.1184
                    CHANNELS 6 Xposition Yposition Zposition Zrotation Xrotation Yrotation
                    JOINT rMid2
                    {
                      OFFSET -3.9766 -1.54 2.3863
                      CHANNELS 6 Xposition Yposition Zposition Zrotation Xrotation Yrotation
                      JOINT rMid2_End
                      {
                        OFFSET -1.4042 -1.926 1.125
                        CHANNELS 6 Xposition Yposition Zposition Zrotation Xrotation Yrotation
                        End Site
                        {
                          OFFSET -0.014 -0.0193 0.0113
                        }
                      }
                    }
                  }
                }
                JOINT rCarpal2
                {
                  OFFSET -2.0956 0.66 -0.3894
                  CHANNELS 6 Xposition Yposition Zposition Zrotation Xrotation Yrotation
                  JOINT rRing1
                  {
                    OFFSET -5.0395 -0.09 2.4971
                    CHANNELS 6 Xposition Yposition Zposition Zrotation Xrotation Yrotation
                    JOINT rRing2
                    {
                      OFFSET -3.7921 -1.552 1.4806
                      CHANNELS 6 Xposition Yposition Zposition Zrotation Xrotation Yrotation
                      JOINT rRing2_End
                      {
                        OFFSET -1.4655 -1.808 0.9609
                        CHANNELS 6 Xposition Yposition Zposition Zrotation Xrotation Yrotation
                        End Site
                        {
                          OFFSET -0.0147 -0.0181 0.0096
                        }
                      }
                    }
                  }
                  JOINT rPinky1
                  {
                    OFFSET -4.9141 -1.269 0.3592
                    CHANNELS 6 Xposition Yposition Zposition Zrotation Xrotation Yrotation
                    JOINT rPinky2
                    {
                      OFFSET -3.1477 -1.685 0.8462
                      CHANNELS 6 Xposition Yposition Zposition Zrotation Xrotation Yrotation
                      JOINT rPinky2_End
                      {
                        OFFSET -0.8055 -1.585 0.7955
                        CHANNELS 6 Xposition Yposition Zposition Zrotation Xrotation Yrotation
                        End Site
                        {
                          OFFSET -0.0081 -0.0158 0.008
                        }
                      }
                    }
                  }
                }
              }
            }
          }
        }
      }
    }
  }
  JOINT lThigh
  {
    OFFSET 8.367 -8.2066 0.5982
    CHANNELS 6 Xposition Yposition Zposition Zrotation Xrotation Yrotation
    JOINT lShin
    {
      OFFSET 2.1923 -43.463 -0.4932
      CHANNELS 6 Xposition Yposition Zposition Zrotation Xrotation Yrotation
      JOINT lFoot
      {
        OFFSET 0.7333 -45.8593 -2.6451
        CHANNELS 6 Xposition Yposition Zposition Zrotation Xrotation Yrotation
        End Site
        {
          OFFSET 2.6618 -4.2699 12.3931
        }
      }
    }
  }
  JOINT rThigh
  {
    OFFSET -8.367 -8.2066 0.5982
    CHANNELS 6 Xposition Yposition Zposition Zrotation Xrotation Yrotation
    JOINT rShin
    {
      OFFSET -2.1923 -43.463 -0.4931
      CHANNELS 6 Xposition Yposition Zposition Zrotation Xrotation Yrotation
      JOINT rFoot
      {
        OFFSET -0.7333 -45.8593 -2.6451
        CHANNELS 6 Xposition Yposition Zposition Zrotation Xrotation Yrotation
        End Site
        {
          OFFSET -2.6618 -4.2699 12.3931
        }
      }
    }
  }
}
MOTION
Frames:	4
Frame Time:	0.0333333
0 90.174 2.4664 0 0 -0 0 -1.186 -1.5018 0 0 -0 0 9.964 0.2134 0 0 -0 0 13.134 -3.2573 0 0 -0 0 20.686 -1.6905 0 0 -0 0 7.238 -0.1237 0 0 -0 1.7069 20.075 5.0056 0 0 -0 13.6458 -0.047 -4.849 1.66051 0.0835086 5.75766 28.3255 -0.9759 2.2888 -0.0175111 0.895433 15.7816 22.1583 -0.53 10.8316 7.95139e-016 -1.98785e-016 -0 0.786 0.112 2.5817 5.46658e-016 -3.97569e-016 -0 0.3601 -0.878 4.2331 5.96354e-016 0 -0 1.8127 -1.216 2.2227 3.97569e-016 1.98785e-016 9.54166e-015 0.9571 1.114 1.7695 1.49089e-016 -3.97569e-016 -0 4.1246 0.487 4.1451 6.4605e-016 0 3.18055e-015 3.4052 -1.454 2.7682 5.96354e-016 0 3.18055e-015 1.4531 -1.795 1.2713 8.94531e-016 -1.98785e-016 6.36111e-015 5.6954 0.21 2.1184 6.4605e-016 0 3.18055e-015 3.9766 -1.54 2.3863 5.96354e-016 0 3.18055e-015 1.4042 -1.926 1.125 8.94531e-016 -1.98785e-016 6.36111e-015 2.0956 0.66 -0.3894 1.49089e-016 -3.97569e-016 -0 5.0395 -0.09 2.4971 6.4605e-016 0 3.18055e-015 3.7921 -1.552 1.4806 5.96354e-016 0 3.18055e-015 1.4655 -1.808 0.9609 8.94531e-016 -1.98785e-016 6.36111e-015 4.9141 -1.269 0.3591 6.4605e-016 0 3.18055e-015 3.1477 -1.685 0.8462 5.96354e-016 0 3.18055e-015 0.8055 -1.585 0.7955 8.94531e-016 -1.98785e-016 6.36111e-015 -1.7069 20.075 5.0056 0 0 -0 -13.6458 -0.047 -4.849 -1.4496 0.0636048 -5.0245 -28.3255 -0.9759 2.2888 -1.74811 1.20616 -16.8394 -22.1583 -0.53 10.8316 -1.19271e-015 1.98785e-016 -3.18055e-015 -0.786 0.112 2.5817 -3.97569e-016 1.98785e-016 -3.18055e-015 -0.3601 -0.878 4.2331 -2.98177e-016 1.98785e-016 -3.18055e-015 -1.8127 -1.216 2.2227 -2.98177e-016 3.97569e-016 -0 -0.9571 1.114 1.7695 4.96962e-016 0 -6.36111e-015 -4.1246 0.487 4.1451 -9.93923e-017 3.97569e-016 -0 -3.4052 -1.454 2.7682 -8.94531e-016 5.96354e-016 -0 -1.4531 -1.795 1.2713 -3.97569e-016 3.97569e-016 -0 -5.6954 0.21 2.1184 -9.93923e-017 3.97569e-016 -0 -3.9766 -1.54 2.3863 -8.94531e-016 5.96354e-016 -0 -1.4042 -1.926 1.125 -3.97569e-016 3.97569e-016 -0 -2.0956 0.66 -0.3894 4.96962e-016 0 -6.36111e-015 -5.0395 -0.09 2.4971 -9.93923e-017 3.97569e-016 -0 -3.7921 -1.552 1.4806 -8.94531e-016 5.96354e-016 -0 -1.4655 -1.808 0.9609 -3.97569e-016 3.97569e-016 -0 -4.9141 -1.269 0.3592 -9.93923e-017 3.97569e-016 -0 -3.1477 -1.685 0.8462 -8.94531e-016 5.96354e-016 -0 -0.8055 -1.585 0.7955 -3.97569e-016 3.97569e-016 -0 8.367 -8.2066 0.5982 -4.66115 -1.03232 0.120763 2.1923 -43.463 -0.4932 0.00990601 1.55097 0.177175 0.7333 -45.8593 -2.6451 4.65196 -0.54114 -0.255042 -8.367 -8.2066 0.5982 4.66115 -1.03222 -0.120763 -2.1923 -43.463 -0.4931 -0.00990459 1.5509 -0.177176 -0.7333 -45.8593 -2.6451 -4.65196 -0.541171 0.255041 
-2.06986 60.1475 -16.8065 -0 -6.6708 -0 0 -1.186 -1.5018 0.0348183 10.3875 -0.109952 0 9.964 0.2134 0.0926511 20.7749 -0.232337 0 13.134 -3.2573 0.0926512 20.7749 -0.232337 -4.44089e-016 20.686 -1.6905 0.352249 21.4815 -0.173674 0 7.238 -0.1237 3.36616 -5.0209 0.391275 1.7069 20.075 5.0056 8.11058 8.30877 -27.9856 13.6458 -0.047 -4.849 -26.391 -37.9001 -4.12725 28.3255 -0.9759 2.2888 30.5081 -5.94386 -75.0455 22.1583 -0.53 10.8316 -10.4091 -18.6977 -14.2655 0.786 0.112 2.5817 -6.3241e-007 5.28263e-007 2.23303e-007 0.3601 -0.878 4.2331 -4.41391e-032 7.95139e-016 3.18055e-015 1.8127 -1.216 2.2227 -6.3241e-007 5.28263e-007 2.23303e-007 0.9571 1.114 1.7695 3.86217e-032 -2.78299e-015 7.95139e-016 4.1246 0.487 4.1451 -6.3241e-007 5.28263e-007 2.23303e-007 3.4052 -1.454 2.7682 -0 -1.27222e-014 -0 1.4531 -1.795 1.2713 -6.3241e-007 5.28263e-007 2.23303e-007 5.6954 0.21 2.1184 -6.3241e-007 5.28263e-007 2.23303e-007 3.9766 -1.54 2.3863 -0 -1.27222e-014 -0 1.4042 -1.926 1.125 -6.3241e-007 5.28263e-007 2.23303e-007 2.0956 0.66 -0.3894 3.86217e-032 -2.78299e-015 7.95139e-016 5.0395 -0.09 2.4971 -6.3241e-007 5.28263e-007 2.23303e-007 3.7921 -1.552 1.4806 -0 -1.27222e-014 -0 1.4655 -1.808 0.9609 -6.3241e-007 5.28263e-007 2.23303e-007 4.9141 -1.269 0.3591 -6.3241e-007 5.28263e-007 2.23303e-007 3.1477 -1.685 0.8462 -0 -1.27222e-014 -0 0.8055 -1.585 0.7955 -6.3241e-007 5.28263e-007 2.23303e-007 -1.7069 20.075 5.0056 -0.558312 11.0008 12.883 -13.6458 -0.047 -4.849 56.3373 -28.9753 30.6578 -28.3255 -0.9759 2.2888 25.0019 42.6978 12.0098 -22.1583 -0.53 10.8316 13.611 0.0830604 -16.7796 -0.786 0.112 2.5817 -7.8895e-007 1.12979e-006 9.81651e-007 -0.3601 -0.878 4.2331 4.61356e-007 1.9633e-006 -2.25958e-006 -1.8127 -1.216 2.2227 -7.8895e-007 1.12979e-006 9.81651e-007 -0.9571 1.114 1.7695 6.36111e-015 -3.18055e-015 -1.59028e-015 -4.1246 0.487 4.1451 -7.8895e-007 1.12979e-006 9.81651e-007 -3.4052 -1.454 2.7682 4.61356e-007 1.9633e-006 -2.25958e-006 -1.4531 -1.795 1.2713 -7.8895e-007 1.12979e-006 9.81651e-007 -5.6954 0.21 2.1184 -7.8895e-007 1.12979e-006 9.81651e-007 -3.9766 -1.54 2.3863 4.61356e-007 1.9633e-006 -2.25958e-006 -1.4042 -1.926 1.125 -7.8895e-007 1.12979e-006 9.81651e-007 -2.0956 0.66 -0.3894 6.36111e-015 -3.18055e-015 -1.59028e-015 -5.0395 -0.09 2.4971 -7.8895e-007 1.12979e-006 9.81651e-007 -3.7921 -1.552 1.4806 4.61356e-007 1.9633e-006 -2.25958e-006 -1.4655 -1.808 0.9609 -7.8895e-007 1.12979e-006 9.81651e-007 -4.9141 -1.269 0.3592 -7.8895e-007 1.12979e-006 9.81651e-007 -3.1477 -1.685 0.8462 4.61356e-007 1.9633e-006 -2.25958e-006 -0.8055 -1.585 0.7955 -7.8895e-007 1.12979e-006 9.81651e-007 8.367 -8.2066 0.5982 6.02536 -0.866407 8.16973 2.1923 -43.463 -0.4932 3.88759 68.1229 -6.69509 0.7333 -45.8593 -2.6451 18.3732 45.5512 -0.784794 -8.367 -8.2066 0.5982 -6.91688 -1.36737 -8.25057 -2.1923 -43.463 -0.4931 -4.1802 68.2713 7.08824 -0.7333 -45.8593 -2.6451 -18.9791 45.3709 1.7578 
-3.00833 46.0288 -25.9889 -0 -9.67266 -0 0 -1.186 -1.5018 0.063831 15.0955 -0.178112 -4.44089e-016 9.964 0.2134 0.188795 30.1907 -0.396296 -4.44089e-016 13.134 -3.2573 0.188795 30.1907 -0.396296 0 20.686 -1.6905 0.560163 31.1477 -0.273805 0 7.238 -0.1237 4.90505 -7.42069 0.581068 1.7069 20.075 5.0056 14.4104 9.97602 -40.7274 13.6458 -0.047 -4.849 -46.4294 -53.9054 -13.8683 28.3255 -0.9759 2.2888 31.6002 -39.7499 -102.807 22.1583 -0.53 10.8316 -18.4102 -25.1972 -22.3938 0.786 0.112 2.5817 -3.66751e-007 -1.25434e-006 5.33495e-008 0.3601 -0.878 4.2331 6.36111e-015 -6.36111e-015 -0 1.8127 -1.216 2.2227 3.66751e-007 1.25434e-006 -5.33494e-008 0.9571 1.114 1.7695 1.59028e-015 1.59028e-015 -0 4.1246 0.487 4.1451 -3.66751e-007 -1.25434e-006 5.33495e-008 3.4052 -1.454 2.7682 6.36111e-015 -9.54166e-015 -0 1.4531 -1.795 1.2713 3.66751e-007 1.25434e-006 -5.33494e-008 5.6954 0.21 2.1184 -3.66751e-007 -1.25434e-006 5.33495e-008 3.9766 -1.54 2.3863 6.36111e-015 -9.54166e-015 -0 1.4042 -1.926 1.125 3.66751e-007 1.25434e-006 -5.33494e-008 2.0956 0.66 -0.3894 1.59028e-015 1.59028e-015 -0 5.0395 -0.09 2.4971 -3.66751e-007 -1.25434e-006 5.33495e-008 3.7921 -1.552 1.4806 6.36111e-015 -9.54166e-015 -0 1.4655 -1.808 0.9609 3.66751e-007 1.25434e-006 -5.33494e-008 4.9141 -1.269 0.3591 -3.66751e-007 -1.25434e-006 5.33495e-008 3.1477 -1.685 0.8462 6.36111e-015 -9.54166e-015 -0 0.8055 -1.585 0.7955 3.66751e-007 1.25434e-006 -5.33494e-008 -1.7069 20.075 5.0056 -2.5888 15.2102 18.7018 -13.6458 -0.047 -4.849 94.1417 -32.752 51.4994 -28.3255 -0.9759 2.2888 20.0317 52.8369 38.4805 -22.1583 -0.53 10.8316 18.2262 -0.259298 -25.2725 -0.786 0.112 2.5817 -4.39628e-007 1.87205e-006 2.33165e-006 -0.3601 -0.878 4.2331 2.20117e-006 2.16682e-006 -5.00164e-007 -1.8127 -1.216 2.2227 1.05934e-030 6.36111e-015 -9.54166e-015 -0.9571 1.114 1.7695 -1.76556e-031 3.18055e-015 3.18055e-015 -4.1246 0.487 4.1451 -4.39628e-007 1.87205e-006 2.33165e-006 -3.4052 -1.454 2.7682 2.20117e-006 2.16682e-006 -5.00164e-007 -1.4531 -1.795 1.2713 1.41245e-030 6.36111e-015 -1.27222e-014 -5.6954 0.21 2.1184 -4.39628e-007 1.87205e-006 2.33165e-006 -3.9766 -1.54 2.3863 2.20117e-006 2.16682e-006 -5.00164e-007 -1.4042 -1.926 1.125 1.41245e-030 6.36111e-015 -1.27222e-014 -2.0956 0.66 -0.3894 -1.76556e-031 3.18055e-015 3.18055e-015 -5.0395 -0.09 2.4971 -4.39628e-007 1.87205e-006 2.33165e-006 -3.7921 -1.552 1.4806 2.20117e-006 2.16682e-006 -5.00164e-007 -1.4655 -1.808 0.9609 1.41245e-030 6.36111e-015 -1.27222e-014 -4.9141 -1.269 0.3592 -4.39628e-007 1.87205e-006 2.33165e-006 -3.1477 -1.685 0.8462 2.20117e-006 2.16682e-006 -5.00164e-007 -0.8055 -1.585 0.7955 1.41245e-030 6.36111e-015 -1.27222e-014 8.367 -8.2066 0.5982 10.9335 -1.82966 12.7776 2.1923 -43.463 -0.4932 143.002 79.1465 -145.178 0.7333 -45.8593 -2.6451 25.7344 66.7068 -2.36853 -8.367 -8.2066 0.5982 -12.2515 -2.5833 -12.8961 -2.1923 -43.463 -0.4931 -142.902 78.8226 145.187 -0.7333 -45.8593 -2.6451 -27.7776 66.4161 4.76842 
-2.79933 49.0124 -24.1583 -0 -9.00558 -0 0 -1.186 -1.5018 0.056396 14.1244 -0.162263 -4.44089e-016 9.964 0.2134 0.163431 28.2485 -0.356519 0 13.134 -3.2573 0.163431 28.2485 -0.356519 4.44089e-016 20.686 -1.6905 0.510624 28.9998 -0.249455 0 7.238 -0.1237 4.56488 -7.19979 0.563719 1.7069 20.075 5.0056 13.3063 8.79624 -37.4686 13.6458 -0.047 -4.849 -41.2175 -50.4832 -11.0409 28.3255 -0.9759 2.2888 33.2318 -31.4838 -96.7506 22.1583 -0.53 10.8316 -16.6764 -24.487 -20.1212 0.786 0.112 2.5817 9.47934e-007 8.97771e-007 -7.67372e-007 0.3601 -0.878 4.2331 -1.5053e-006 -2.83188e-006 5.99223e-007 1.8127 -1.216 2.2227 1.88394e-006 -2.40308e-006 -2.41755e-007 0.9571 1.114 1.7695 -3.18055e-015 -3.18055e-015 -3.18055e-015 4.1246 0.487 4.1451 9.47934e-007 8.97771e-007 -7.67372e-007 3.4052 -1.454 2.7682 -1.5053e-006 -2.83188e-006 5.99223e-007 1.4531 -1.795 1.2713 1.88394e-006 -2.40308e-006 -2.41755e-007 5.6954 0.21 2.1184 9.47934e-007 8.97771e-007 -7.67372e-007 3.9766 -1.54 2.3863 -1.5053e-006 -2.83188e-006 5.99223e-007 1.4042 -1.926 1.125 1.88394e-006 -2.40308e-006 -2.41755e-007 2.0956 0.66 -0.3894 -3.18055e-015 -3.18055e-015 -3.18055e-015 5.0395 -0.09 2.4971 9.47934e-007 8.97771e-007 -7.67372e-007 3.7921 -1.552 1.4806 -1.5053e-006 -2.83188e-006 5.99223e-007 1.4655 -1.808 0.9609 1.88394e-006 -2.40308e-006 -2.41755e-007 4.9141 -1.269 0.3591 9.47934e-007 8.97771e-007 -7.67372e-007 3.1477 -1.685 0.8462 -1.5053e-006 -2.83188e-006 5.99223e-007 0.8055 -1.585 0.7955 1.88394e-006 -2.40308e-006 -2.41755e-007 -1.7069 20.075 5.0056 -2.38973 13.6441 16.6245 -13.6458 -0.047 -4.849 85.4835 -32.3208 46.499 -28.3255 -0.9759 2.2888 22.9152 51.6541 33.0152 -22.1583 -0.53 10.8316 16.2651 -0.811786 -24.7434 -0.786 0.112 2.5817 6.36111e-015 1.27222e-014 -6.36111e-015 -0.3601 -0.878 4.2331 -5.5697e-007 -1.40859e-006 2.78206e-006 -1.8127 -1.216 2.2227 3.18055e-015 6.36111e-015 3.18055e-015 -0.9571 1.114 1.7695 -3.18055e-015 6.36111e-015 -3.18055e-015 -4.1246 0.487 4.1451 3.18055e-015 1.27222e-014 -6.36111e-015 -3.4052 -1.454 2.7682 -5.5697e-007 -1.40859e-006 2.78206e-006 -1.4531 -1.795 1.2713 6.36111e-015 1.59028e-014 6.36111e-015 -5.6954 0.21 2.1184 3.18055e-015 1.27222e-014 -6.36111e-015 -3.9766 -1.54 2.3863 -5.5697e-007 -1.40859e-006 2.78206e-006 -1.4042 -1.926 1.125 6.36111e-015 1.59028e-014 6.36111e-015 -2.0956 0.66 -0.3894 -3.18055e-015 6.36111e-015 -3.18055e-015 -5.0395 -0.09 2.4971 3.18055e-015 1.27222e-014 -6.36111e-015 -3.7921 -1.552 1.4806 -5.5697e-007 -1.40859e-006 2.78206e-006 -1.4655 -1.808 0.9609 6.36111e-015 1.59028e-014 6.36111e-015 -4.9141 -1.269 0.3592 3.18055e-015 1.27222e-014 -6.36111e-015 -3.1477 -1.685 0.8462 -5.5697e-007 -1.40859e-006 2.78206e-006 -0.8055 -1.585 0.7955 6.36111e-015 1.59028e-014 6.36111e-015 8.367 -8.2066 0.5982 9.86301 -1.92856 11.6872 2.1923 -43.463 -0.4932 114.132 84.1991 -116.545 0.7333 -45.8593 -2.6451 23.8368 61.9391 -1.74028 -8.367 -8.2066 0.5982 -11.085 -2.62584 -11.7971 -2.1923 -43.463 -0.4931 -115.351 83.9362 117.871 -0.7333 -45.8593 -2.6451 -25.3746 61.6788 3.64376 
